<?xml version="1.0" encoding="iso-8859-1"?>
<!-- Uploaded to: SVG Repo, www.svgrepo.com, Generator: SVG Repo Mixer Tools -->
<svg version="1.1" id="Layer_1" xmlns="http://www.w3.org/2000/svg" xmlns:xlink="http://www.w3.org/1999/xlink" 
	 viewBox="0 0 512 512" xml:space="preserve">
<g>
	<rect x="197.818" y="381.091" style="fill:#FF5023;" width="116.364" height="34.909"/>
	<polygon style="fill:#FF5023;" points="372.277,367.216 256,165.819 139.722,367.216 109.491,349.762 256,96.001 402.509,349.762 	
		"/>
</g>
<path style="fill:#AED5F3;" d="M372.373,170.147c0-21.915-14.648-41.873-35.621-48.536l-7.504-2.383l-0.378-7.866
	c-1.729-35.869-31.234-63.967-67.173-63.967c-32.056,0-59.807,22.818-65.99,54.256l-1.522,7.739l-7.788,1.256
	c-26.651,4.295-46.75,27.875-46.75,54.847c0,30.633,24.922,55.553,55.554,55.553h126.274
	C349.54,221.046,372.373,198.213,372.373,170.147z"/>
<path style="fill:#93C7EF;" d="M336.752,121.611l-7.504-2.383l-0.378-7.866c-1.729-35.869-31.234-63.967-67.173-63.967
	c-2.139,0-4.254,0.109-6.349,0.308v173.343h66.127c28.066,0,50.899-22.833,50.899-50.899
	C372.373,148.233,357.725,128.273,336.752,121.611z"/>
<path style="fill:#AED5F3;" d="M232.727,411.199c0-21.915-14.649-41.873-35.621-48.536l-7.504-2.384l-0.378-7.865
	c-1.728-35.869-31.234-63.967-67.174-63.967c-32.055,0-59.807,22.818-65.989,54.256l-1.522,7.739l-7.788,1.256
	C20.098,355.994,0,379.573,0,406.545c0,30.633,24.922,55.554,55.554,55.554h126.274
	C209.894,462.099,232.727,439.266,232.727,411.199z"/>
<path style="fill:#93C7EF;" d="M197.106,362.663l-7.504-2.384l-0.378-7.865c-1.728-35.869-31.234-63.967-67.174-63.967
	c-2.138,0-4.253,0.109-6.348,0.308v173.345h66.127c28.066,0,50.899-22.833,50.899-50.9
	C232.727,389.285,218.078,369.326,197.106,362.663z"/>
<path style="fill:#AED5F3;" d="M512,413.706c0-21.915-14.648-41.872-35.621-48.536l-7.504-2.383l-0.378-7.865
	c-1.729-35.87-31.234-63.969-67.173-63.969c-32.056,0-59.809,22.818-65.99,54.256l-1.522,7.739l-7.788,1.256
	c-26.652,4.297-46.75,27.877-46.75,54.848c0,30.633,24.922,55.554,55.554,55.554h126.274C489.167,464.607,512,441.772,512,413.706z"
	/>
<path style="fill:#93C7EF;" d="M476.379,365.169l-7.504-2.383l-0.378-7.865c-1.729-35.87-31.234-63.969-67.173-63.969
	c-2.139,0-4.254,0.109-6.349,0.308v173.345h66.127c28.066,0,50.899-22.834,50.899-50.9C512,391.791,497.352,371.834,476.379,365.169
	z"/>
</svg>