<?xml version="1.0" ?>
<!-- Uploaded to: SVG Repo, www.svgrepo.com, Generator: SVG Repo Mixer Tools -->
<svg width="800px" height="800px" viewBox="0 0 64 64" id="Layer_1" version="1.1" xml:space="preserve" xmlns="http://www.w3.org/2000/svg" xmlns:xlink="http://www.w3.org/1999/xlink">
<style type="text/css">
	.st0{fill:none;stroke:#126BB5;stroke-width:2;stroke-linecap:round;stroke-linejoin:round;stroke-miterlimit:10;}
	.st1{fill:none;stroke:#00B1E4;stroke-width:2;stroke-linecap:round;stroke-linejoin:round;stroke-miterlimit:10;}
	.st2{fill:none;stroke:#00B1E4;stroke-width:2;stroke-linejoin:round;stroke-miterlimit:10;}
	.st3{fill:#FFFFFF;stroke:#00B1E4;stroke-width:2;stroke-linecap:round;stroke-linejoin:round;stroke-miterlimit:10;}
	.st4{fill:#00B1E4;}
	.st5{fill:none;stroke:#126BB5;stroke-width:2;stroke-miterlimit:10;}
	.st6{fill:none;stroke:#00B1E4;stroke-width:2;stroke-miterlimit:10;}
	.st7{fill:none;stroke:#2B3088;stroke-width:2;stroke-linejoin:round;stroke-miterlimit:10;}
	.st8{fill:none;stroke:#126BB5;stroke-width:2;stroke-linecap:round;stroke-miterlimit:10;}
	.st9{fill:none;stroke:#00B1E4;stroke-width:2;stroke-linecap:round;stroke-miterlimit:10;}
</style>
<g>
<path class="st0" d="M37,52H21c-1.6,0-3-1.3-3-3V21c0-1.6,1.4-3,3-3h22c1.7,0,3,1.4,3,3v13"/>
</g>
<path class="st0" d="M42,18h-6v-3c0-1.7,1.3-3,3-3h0c1.7,0,3,1.3,3,3V18z"/>
<g>
<path class="st1" d="M41,28.5c0,0.8-0.7,1.5-1.5,1.5h-15c-0.8,0-1.5-0.7-1.5-1.5v-4c0-0.8,0.7-1.5,1.5-1.5h15   c0.8,0,1.5,0.7,1.5,1.5V28.5z"/>
</g>
<rect class="st1" height="8" width="10" x="42" y="44"/>
<path class="st1" d="M50,44h-6v-2c0-1.7,1.3-3,3-3h0c1.7,0,3,1.3,3,3V44z"/>
<line class="st1" x1="47" x2="47" y1="48" y2="48"/>
<rect class="st0" height="3" width="3" x="38" y="35"/>
<g>
<rect class="st0" height="3" width="3" x="23" y="35"/>
<rect class="st0" height="3" width="3" x="30.5" y="35"/>
</g>
<g>
<rect class="st0" height="3" width="3" x="23" y="43"/>
<rect class="st0" height="3" width="3" x="30.5" y="43"/>
</g>
</svg>